<?xml version="1.0" encoding="utf-8"?>
<!-- Generator: Adobe Illustrator 21.0.0, SVG Export Plug-In . SVG Version: 6.00 Build 0)  -->
<svg version="1.1" id="图层_1" xmlns="http://www.w3.org/2000/svg" xmlns:xlink="http://www.w3.org/1999/xlink" x="0px" y="0px"
	 viewBox="0 0 800 800" style="enable-background:new 0 0 800 800;" xml:space="preserve">
<g>
	<path d="M593.1,263H263.9c-1.6,0-2.9,0.9-2.9,2v35c0,1.1,1.3,2,2.9,2h329.2c1.6,0,2.9-0.9,2.9-2v-35
		C596,263.9,594.7,263,593.1,263z"/>
	<path d="M593.1,518H334c-1.6,0-2.9,0.9-2.9,2v35c0,1.1,1.3,2,2.9,2h259.1c1.6,0,2.9-0.9,2.9-2v-35
		C596,518.9,594.7,518,593.1,518z"/>
	<path d="M593.1,348h-189c-1.6,0-2.9,0.9-2.9,2v35c0,1.1,1.3,2,2.9,2h189c1.6,0,2.9-0.9,2.9-2v-35
		C596,348.9,594.7,348,593.1,348z"/>
	<path d="M593.1,433H213.9c-1.6,0-2.9,0.9-2.9,2v35c0,1.1,1.3,2,2.9,2h379.3c1.6,0,2.9-0.9,2.9-2v-35
		C596,433.9,594.7,433,593.1,433z"/>
</g>
</svg>
