<?xml version="1.0" encoding="utf-8"?>
<!-- Generator: Adobe Illustrator 21.0.0, SVG Export Plug-In . SVG Version: 6.00 Build 0)  -->
<svg version="1.1" id="图层_1" xmlns="http://www.w3.org/2000/svg" xmlns:xlink="http://www.w3.org/1999/xlink" x="0px" y="0px"
	 viewBox="0 0 800 800" style="enable-background:new 0 0 800 800;" xml:space="preserve">
<g>
	<path d="M543.4,263H214.2c-1.6,0-2.9,0.9-2.9,2v35c0,1.1,1.3,2,2.9,2h329.2c1.6,0,2.9-0.9,2.9-2v-35
		C546.3,263.9,545,263,543.4,263z"/>
	<path d="M473.3,518H214.2c-1.6,0-2.9,0.9-2.9,2v35c0,1.1,1.3,2,2.9,2h259.1c1.6,0,2.9-0.9,2.9-2v-35
		C476.2,518.9,474.9,518,473.3,518z"/>
	<path d="M403.2,348h-189c-1.6,0-2.9,0.9-2.9,2v35c0,1.1,1.3,2,2.9,2h189c1.6,0,2.9-0.9,2.9-2v-35
		C406.1,348.9,404.8,348,403.2,348z"/>
	<path d="M593.5,433H214.2c-1.6,0-2.9,0.9-2.9,2v35c0,1.1,1.3,2,2.9,2h379.3c1.6,0,2.9-0.9,2.9-2v-35
		C596.4,433.9,595.1,433,593.5,433z"/>
</g>
</svg>
