<?xml version="1.0" encoding="utf-8"?>
<!-- Generator: Adobe Illustrator 21.0.0, SVG Export Plug-In . SVG Version: 6.00 Build 0)  -->
<svg version="1.1" id="图层_1" xmlns="http://www.w3.org/2000/svg" xmlns:xlink="http://www.w3.org/1999/xlink" x="0px" y="0px"
	 viewBox="0 0 800 800" style="enable-background:new 0 0 800 800;" xml:space="preserve">
<g>
	<path d="M568.4,263H239.2c-1.6,0-2.9,0.9-2.9,2v35c0,1.1,1.3,2,2.9,2h329.2c1.6,0,2.9-0.9,2.9-2v-35
		C571.2,263.9,569.9,263,568.4,263z"/>
	<path d="M533.3,518H274.2c-1.6,0-2.9,0.9-2.9,2v35c0,1.1,1.3,2,2.9,2h259.1c1.6,0,2.9-0.9,2.9-2v-35
		C536.2,518.9,534.9,518,533.3,518z"/>
	<path d="M498.3,348h-189c-1.6,0-2.9,0.9-2.9,2v35c0,1.1,1.3,2,2.9,2h189c1.6,0,2.9-0.9,2.9-2v-35
		C501.1,348.9,499.8,348,498.3,348z"/>
	<path d="M593.4,433H214.1c-1.6,0-2.9,0.9-2.9,2v35c0,1.1,1.3,2,2.9,2h379.3c1.6,0,2.9-0.9,2.9-2v-35
		C596.3,433.9,595,433,593.4,433z"/>
</g>
</svg>
