<?xml version="1.0" encoding="utf-8"?>
<!-- Generator: Adobe Illustrator 21.0.0, SVG Export Plug-In . SVG Version: 6.00 Build 0)  -->
<svg version="1.1" id="图层_1" xmlns="http://www.w3.org/2000/svg" xmlns:xlink="http://www.w3.org/1999/xlink" x="0px" y="0px"
	 viewBox="0 0 800 800" style="enable-background:new 0 0 800 800;" xml:space="preserve">
<g>
	<path d="M614.9,263H235.5c-1.5,0-2.8,0.9-2.8,2v35c0,1.1,1.3,2,2.8,2h379.4c1.5,0,2.8-0.9,2.8-2v-35
		C617.7,263.9,616.4,263,614.9,263z"/>
	<path d="M613.6,348H236.7c-2.2,0-4,0.9-4,2v35c0,1.1,1.8,2,4,2h376.9c2.2,0,4-0.9,4-2v-35
		C617.7,348.9,615.9,348,613.6,348z"/>
	<path d="M613.6,433H236.7c-2.2,0-4,0.9-4,2v35c0,1.1,1.8,2,4,2h376.9c2.2,0,4-0.9,4-2v-35
		C617.7,433.9,615.9,433,613.6,433z"/>
	<path d="M614.9,518H235.5c-1.5,0-2.8,0.9-2.8,2v35c0,1.1,1.3,2,2.8,2h379.4c1.5,0,2.8-0.9,2.8-2v-35
		C617.7,518.9,616.4,518,614.9,518z"/>
</g>
</svg>
