<?xml version="1.0" encoding="utf-8"?>
<!-- Generator: Adobe Illustrator 21.0.0, SVG Export Plug-In . SVG Version: 6.00 Build 0)  -->
<svg version="1.1" id="图层_1" xmlns="http://www.w3.org/2000/svg" xmlns:xlink="http://www.w3.org/1999/xlink" x="0px" y="0px"
	 viewBox="0 0 800 800" style="enable-background:new 0 0 800 800;" xml:space="preserve">
<path d="M548.8,408.9c-10-14.4-23.5-26.1-39.1-33.9c10.2-15.6,15.5-33.7,15.5-52.5c0-53.2-43.3-96.5-96.5-96.5H309.3
	c-7.1,0-12.8,5.7-12.8,12.8v322.4c0,7.1,5.7,12.8,12.8,12.8h153.2c57.9,0,105-47.2,105-105.1C567.5,447.3,561,426.5,548.8,408.9z
	 M512.3,469.3c-0.2,27.2-23,49.4-50.6,49.4h-110V419h110.7c13.4,0,25.9,5.3,35.4,14.9C507.3,443.4,512.4,456,512.3,469.3z
	 M351.7,363.8v-82.7h76.2c22.9,0,41.8,18.2,42.2,40.7c0.2,11.2-4.1,21.7-12,29.7c-7.9,8-18.4,12.4-29.4,12.4H351.7z"/>
</svg>
