<?xml version="1.0" encoding="utf-8"?>
<!-- Generator: Adobe Illustrator 21.0.0, SVG Export Plug-In . SVG Version: 6.00 Build 0)  -->
<svg version="1.1" id="图层_1" xmlns="http://www.w3.org/2000/svg" xmlns:xlink="http://www.w3.org/1999/xlink" x="0px" y="0px"
	 viewBox="0 0 800 800" style="enable-background:new 0 0 800 800;" xml:space="preserve">
<path d="M585.4,548.8H384.9l78.7-78.7l0,0l120.9-120.9c3.2-3.2,3.8-8.1,1.7-11.9c-0.4-0.8-1-1.5-1.7-2.2L463.6,214.2
	l0,0l0,0c-0.3-0.3-0.6-0.6-1-0.8c-3.4-2.6-8.1-2.8-11.6-0.4c-0.6,0.4-1.1,0.8-1.6,1.3l-79.9,79.9l-41,41l0,0L213.7,450
	c-3.9,3.9-3.9,10.2,0,14.1l84.8,84.8h-49.2c-1.1,0-2,0.9-2,2v34.9c0,1.1,0.9,2,2,2h336c1.1,0,2-0.9,2-2v-35
	C587.4,549.7,586.5,548.8,585.4,548.8z M349.1,369.7l79.9,79.9l-87.2,87.2l-79.9-79.9L349.1,369.7z"/>
</svg>
