<?xml version="1.0" encoding="utf-8"?>
<!-- Generator: Adobe Illustrator 21.0.0, SVG Export Plug-In . SVG Version: 6.00 Build 0)  -->
<svg version="1.1" id="图层_1" xmlns="http://www.w3.org/2000/svg" xmlns:xlink="http://www.w3.org/1999/xlink" x="0px" y="0px"
	 viewBox="0 0 800 800" style="enable-background:new 0 0 800 800;" xml:space="preserve">
<g>
	<path d="M567,553.3H213c-1.1,0-2,0.9-2,2v35c0,1.1,0.9,2,2,2h354c1.1,0,2-0.9,2-2v-35C569,554.2,568.1,553.3,567,553.3
		z"/>
	<path d="M359.1,520.9c2,2,4.5,2.9,7.1,2.9s5.1-1,7.1-2.9l89-89l1,5.1v77.4c0,0.5,125.8-85.1,68.8-148.3
		c-17.3-18.9-73.8-30.2-85.9-32.4l-72.9-72.9c-0.4-0.3-0.7-0.6-1.1-0.9l-52-52c-0.8-0.8-2-0.8-2.8,0l-24.7,24.7
		c-0.8,0.8-0.8,2,0,2.8l45.9,45.9L236.1,383.8c-3.9,3.9-3.9,10.2,0,14.1L359.1,520.9z M366.2,308.9l82,82l-82,82l-82-82L366.2,308.9
		z"/>
</g>
</svg>
