<?xml version="1.0" encoding="utf-8"?>
<!-- Generator: Adobe Illustrator 21.0.0, SVG Export Plug-In . SVG Version: 6.00 Build 0)  -->
<svg version="1.1" id="图层_1" xmlns="http://www.w3.org/2000/svg" xmlns:xlink="http://www.w3.org/1999/xlink" x="0px" y="0px"
	 viewBox="0 0 800 800" style="enable-background:new 0 0 800 800;" xml:space="preserve">
<path d="M556.2,221.8h-314c-1.7,0-3,1.3-3,3v350c0,1.7,1.3,3,3,3h314c1.7,0,3-1.3,3-3v-350
	C559.2,223.1,557.8,221.8,556.2,221.8z M521.2,539.8h-244v-280h244V539.8z"/>
<path d="M462.9,302.8H335.4c-2.2,0-4,1.8-4,4v186c0,2.2,1.8,4,4,4h29.8c2.2,0,4-1.8,4-4V415h80.5c2.2,0,4-1.8,4-4v-27.2
	c0-2.2-1.8-4-4-4h-80.5V338h93.6c2.2,0,4-1.8,4-4v-27.2C466.9,304.6,465.1,302.8,462.9,302.8z"/>
</svg>
