<?xml version="1.0" encoding="utf-8"?>
<!-- Generator: Adobe Illustrator 21.0.0, SVG Export Plug-In . SVG Version: 6.00 Build 0)  -->
<svg version="1.1" id="图层_1" xmlns="http://www.w3.org/2000/svg" xmlns:xlink="http://www.w3.org/1999/xlink" x="0px" y="0px"
	 viewBox="0 0 800 800" style="enable-background:new 0 0 800 800;" xml:space="preserve">
<path d="M590.4,260.7h-381c-1.1,0-2,0.9-2,2v290c0,1.1,0.9,2,2,2h381c1.1,0,2-0.9,2-2v-290
	C592.4,261.6,591.5,260.7,590.4,260.7z M553.4,299.7v80.5l-55.8-21.7c-8.1-3.2-17.2-1.1-23.3,5.1L413.2,427l-54-27.2
	c-7.8-3.9-17-2.8-23.6,2.9l-89.2,76.4V299.7H553.4z M263.6,515.7l88.5-75.8l55.1,27.7c8.5,4.3,18.6,2.5,25.1-4.3l62-64.3l59,23v93.7
	H263.6z"/>
</svg>
