<?xml version="1.0" encoding="utf-8"?>
<!-- Generator: Adobe Illustrator 21.0.0, SVG Export Plug-In . SVG Version: 6.00 Build 0)  -->
<svg version="1.1" id="图层_1" xmlns="http://www.w3.org/2000/svg" xmlns:xlink="http://www.w3.org/1999/xlink" x="0px" y="0px"
	 viewBox="0 0 800 800" style="enable-background:new 0 0 800 800;" xml:space="preserve">
<g>
	<g>
		<path d="M592.8,348H333.7c-1.6,0-2.9,0.9-2.9,2v35c0,1.1,1.3,2,2.9,2h259.1c1.6,0,2.9-0.9,2.9-2v-35
			C595.7,348.9,594.4,348,592.8,348z"/>
		<path d="M592.8,433H333.7c-1.6,0-2.9,0.9-2.9,2v35c0,1.1,1.3,2,2.9,2h259.1c1.6,0,2.9-0.9,2.9-2v-35
			C595.7,433.9,594.4,433,592.8,433z"/>
	</g>
	<g>
		<path d="M592.8,263H213.6c-1.6,0-2.9,0.9-2.9,2v35c0,1.1,1.3,2,2.9,2h379.3c1.6,0,2.9-0.9,2.9-2v-35
			C595.7,263.9,594.4,263,592.8,263z"/>
		<path d="M592.8,518H213.6c-1.6,0-2.9,0.9-2.9,2v35c0,1.1,1.3,2,2.9,2h379.3c1.6,0,2.9-0.9,2.9-2v-35
			C595.7,518.9,594.4,518,592.8,518z"/>
	</g>
	<path d="M220.7,409.3c0-16.3,0-32.5,0-48.8c0-1.8,0-3.5,0.2-5.3c0.7-6,5.1-8,9.8-4.3c2.1,1.7,3.9,3.9,5.8,5.9
		c14.5,15.3,29,30.5,43.5,45.8c5.8,6.1,5.8,8,0.1,14c-15.6,16.4-31.2,32.7-46.8,49.1c-0.8,0.9-1.6,1.8-2.6,2.5
		c-4.6,3.5-9.2,1.5-9.8-4.4c-0.3-3-0.2-6-0.2-9C220.7,439.7,220.7,424.5,220.7,409.3L220.7,409.3z M220.7,409.3"/>
</g>
</svg>
