<?xml version="1.0" encoding="utf-8"?>
<!-- Generator: Adobe Illustrator 21.0.0, SVG Export Plug-In . SVG Version: 6.00 Build 0)  -->
<svg version="1.1" id="图层_1" xmlns="http://www.w3.org/2000/svg" xmlns:xlink="http://www.w3.org/1999/xlink" x="0px" y="0px"
	 viewBox="0 0 800 800" style="enable-background:new 0 0 800 800;" xml:space="preserve">
<path d="M514.7,225.8H357.3c-2.4,0-4.3,1.9-4.3,4.3v31.1c0,2.4,1.9,4.3,4.3,4.3h57.8l-71.7,267.6h-58.6
	c-2.4,0-4.3,1.9-4.3,4.3v31.1c0,2.4,1.9,4.3,4.3,4.3h156.5c2.4,0,4.3-1.9,4.3-4.3v-31.1c0-2.4-1.9-4.3-4.3-4.3h-56.9l71.7-267.6
	h58.6c2.4,0,4.3-1.9,4.3-4.3V230C519,227.7,517.1,225.8,514.7,225.8z"/>
</svg>
