<?xml version="1.0" encoding="utf-8"?>
<!-- Generator: Adobe Illustrator 21.0.0, SVG Export Plug-In . SVG Version: 6.00 Build 0)  -->
<svg version="1.1" id="图层_1" xmlns="http://www.w3.org/2000/svg" xmlns:xlink="http://www.w3.org/1999/xlink" x="0px" y="0px"
	 viewBox="0 0 800 800" style="enable-background:new 0 0 800 800;" xml:space="preserve">
<g>
	<path d="M320.3,455.3l22.8,22.8c0.7,0.7,1.5,1,2.4,1c0.8,0,1.7-0.3,2.4-1l127.9-127.9l0.1-0.1c1.1-1.3,1.1-3.3-0.1-4.6
		l-22.8-22.8c-1.3-1.3-3.4-1.3-4.7,0L320.3,450.6C318.9,452,318.9,454,320.3,455.3z"/>
	<path d="M407.1,432.8l-27.6,27.5l4.2,4.2L305,543.3l-50.1-50.1l78.8-78.8l4.2,4.2l27.6-27.6l-24.2-24.2
		c-2-2-4.7-3.1-7.6-3.1c-2.9,0-5.5,1.1-7.6,3.1L207.4,485.6c-2,2-3.1,4.7-3.1,7.6c0,2.9,1.1,5.5,3.1,7.6l90,90c2,2,4.7,3.1,7.6,3.1
		c2.9,0,5.5-1.1,7.6-3.1l118.7-118.6c4.2-4.2,4.2-11,0-15.1L407.1,432.8z"/>
	<path d="M588.3,300.1l-90-90c-4.2-4.2-11-4.2-15.1,0L364.4,328.8c-4.2,4.2-4.2,11,0,15.1l24.2,24.2l27.6-27.6l-4.2-4.2
		l78.8-78.8l50.1,50.1L462,386.4l-4.2-4.2l-27.6,27.6l24.2,24.2c2.1,2.1,4.8,3.1,7.6,3.1c2.7,0,5.5-1,7.6-3.1l118.7-118.7
		c2-2,3.1-4.7,3.1-7.6S590.3,302.1,588.3,300.1z"/>
</g>
</svg>
