<?xml version="1.0" encoding="utf-8"?>
<!-- Generator: Adobe Illustrator 21.0.0, SVG Export Plug-In . SVG Version: 6.00 Build 0)  -->
<svg version="1.1" id="图层_1" xmlns="http://www.w3.org/2000/svg" xmlns:xlink="http://www.w3.org/1999/xlink" x="0px" y="0px"
	 viewBox="0 0 800 800" style="enable-background:new 0 0 800 800;" xml:space="preserve">
<style type="text/css">
	.st0{fill:#EA1515;}
</style>
<path d="M627,240.5H365c-1.1,0-2,0.9-2,2v35c0,1.1,0.9,2,2,2h262c1.1,0,2-0.9,2-2v-35C629,241.4,628.1,240.5,627,240.5z
	"/>
<path d="M627,368.5H365c-1.1,0-2,0.9-2,2v35c0,1.1,0.9,2,2,2h262c1.1,0,2-0.9,2-2v-35C629,369.4,628.1,368.5,627,368.5z
	"/>
<path d="M627,495.5H365c-1.1,0-2,0.9-2,2v35c0,1.1,0.9,2,2,2h262c1.1,0,2-0.9,2-2v-35C629,496.4,628.1,495.5,627,495.5z
	"/>
<circle cx="273" cy="260.2" r="40"/>
<circle cx="273" cy="390.2" r="40"/>
<circle cx="273" cy="520.2" r="40"/>
</svg>
