<?xml version="1.0" encoding="utf-8"?>
<!-- Generator: Adobe Illustrator 21.0.0, SVG Export Plug-In . SVG Version: 6.00 Build 0)  -->
<svg version="1.1" id="图层_1" xmlns="http://www.w3.org/2000/svg" xmlns:xlink="http://www.w3.org/1999/xlink" x="0px" y="0px"
	 viewBox="0 0 800 800" style="enable-background:new 0 0 800 800;" xml:space="preserve">
<g>
	<path d="M585.8,248.5H323.6c-1.1,0-2,0.9-2,2v35c0,1.1,0.9,2,2,2h262.3c1.1,0,2-0.9,2-2v-35
		C587.8,249.4,586.9,248.5,585.8,248.5z"/>
	<path d="M247.7,236.8L247.7,236.8H225h-9.7c-0.7,0-1.3,0.5-1.3,1V255c0,0.5,0.6,1,1.3,1h8.4v57.3
		c0,0.7,0.6,1.3,1.3,1.3h22.7c0.7,0,1.3-0.6,1.3-1.3V255v-16.9v-0.3C249,237.3,248.5,236.8,247.7,236.8z"/>
	<path d="M585.8,376.6H323.6c-1.1,0-2,0.9-2,2v35c0,1.1,0.9,2,2,2h262.3c1.1,0,2-0.9,2-2v-35
		C587.8,377.6,586.9,376.6,585.8,376.6z"/>
	<path d="M585.8,503.8H323.6c-1.1,0-2,0.9-2,2v35c0,1.1,0.9,2,2,2h262.3c1.1,0,2-0.9,2-2v-35
		C587.8,504.7,586.9,503.8,585.8,503.8z"/>
	<path d="M248,418.9c2-1.9,4.3-3.8,6.9-5.6c14.1-9.9,20.3-19.5,19-29.2c-1-14.1-10.2-22.5-25.4-23h-0.1
		c-13.4-0.3-24.4,5.7-30,17.8l-2.3,5.2l15.8,7.8c0,0,2.1-5.3,5.4-8.6c3.1-3.2,9.5-6,13.2-3c4.5,4.7,2,10.8-8.2,18
		c-10.2,7-17.8,15.7-22.6,25.7l-0.8,1.6v12.3h55.2V419L248,418.9L248,418.9L248,418.9z"/>
	<path class="st1" d="M276.8,532.1c-0.4-8.2-3.5-14.8-8.9-19.3c3.5-4.1,5.5-9.4,5.9-15.6l0-0.4l0-0.4c-0.7-16.8-11.4-26.5-29.6-26.7
		c-0.2,0-0.4,0-0.6,0c-15.8,0-27,8.4-30.1,22.7l-1.7,7.6l19.1,3.6l1.8-6.8c1.6-6.4,7.1-7.4,11.3-7.2c7.6,0.4,8.5,2.5,8.7,7.5
		c0,0.8-0.5,3.2-2.2,5c-1.6,1.7-3.8,2.5-6.8,2.5h-7.6v19.5h10.3c8,0,9.2,6.3,9.4,8.2c0.3,2.7-0.7,4-1.4,4.8c-2,2-6,3.2-10,2.8
		c-4.9-0.4-9.5-4.5-11.2-7l-3.8-5.6l-17.4,9.4l3.9,6.7c6.9,11.9,19.9,18.3,28.7,18.3c19.2,0,31.3-10.8,32.3-28.9l0-0.4L276.8,532.1z
		"/>
</g>
</svg>
