<?xml version="1.0" encoding="utf-8"?>
<!-- Generator: Adobe Illustrator 21.0.0, SVG Export Plug-In . SVG Version: 6.00 Build 0)  -->
<svg version="1.1" id="图层_1" xmlns="http://www.w3.org/2000/svg" xmlns:xlink="http://www.w3.org/1999/xlink" x="0px" y="0px"
	 viewBox="0 0 800 800" style="enable-background:new 0 0 800 800;" xml:space="preserve">
<g>
	<g>
		<path d="M592.8,347.4H333.7c-1.6,0-2.9,0.9-2.9,2v35c0,1.1,1.3,2,2.9,2h259.1c1.6,0,2.9-0.9,2.9-2v-35
			C595.7,348.3,594.4,347.4,592.8,347.4z"/>
		<path d="M592.8,432.4H333.7c-1.6,0-2.9,0.9-2.9,2v35c0,1.1,1.3,2,2.9,2h259.1c1.6,0,2.9-0.9,2.9-2v-35
			C595.7,433.3,594.4,432.4,592.8,432.4z"/>
	</g>
	<g>
		<path d="M592.8,262.4H213.5c-1.6,0-2.9,0.9-2.9,2v35c0,1.1,1.3,2,2.9,2h379.3c1.6,0,2.9-0.9,2.9-2v-35
			C595.7,263.3,594.4,262.4,592.8,262.4z"/>
		<path d="M592.8,517.4H213.5c-1.6,0-2.9,0.9-2.9,2v35c0,1.1,1.3,2,2.9,2h379.3c1.6,0,2.9-0.9,2.9-2v-35
			C595.7,518.3,594.4,517.4,592.8,517.4z"/>
	</g>
	<path d="M284.3,409.2c0,16.3,0,32.5,0,48.8c0,1.8,0,3.5-0.2,5.3c-0.7,6-5.1,8-9.8,4.3c-2.1-1.7-3.9-3.9-5.8-5.9
		c-14.5-15.3-29-30.5-43.5-45.8c-5.8-6.1-5.8-8-0.1-14c15.6-16.4,31.2-32.7,46.8-49.1c0.8-0.9,1.6-1.8,2.6-2.5
		c4.6-3.5,9.2-1.5,9.8,4.4c0.3,3,0.2,6,0.2,9C284.3,378.9,284.3,394.1,284.3,409.2L284.3,409.2z M284.3,409.2"/>
</g>
</svg>
