<?xml version="1.0" encoding="utf-8"?>
<!-- Generator: Adobe Illustrator 21.0.0, SVG Export Plug-In . SVG Version: 6.00 Build 0)  -->
<svg version="1.1" id="图层_1" xmlns="http://www.w3.org/2000/svg" xmlns:xlink="http://www.w3.org/1999/xlink" x="0px" y="0px"
	 viewBox="0 0 800 800" style="enable-background:new 0 0 800 800;" xml:space="preserve">
<path d="M249.8,342.7c25.3-25.3,58.9-39.2,94.7-39.2h183.4L498.4,274c-1.2-1.2-1.2-3.1,0-4.2l24.3-24.3
	c1.2-1.2,3.1-1.2,4.2,0l63.9,63.9c0.2,0.2,0.5,0.5,0.7,0.8c0.1,0.1,0.1,0.2,0.2,0.3c0.1,0.1,0.2,0.2,0.3,0.3l0.3,0.4
	c0.1,0.1,0.2,0.2,0.3,0.3l0.6,0.9c0,0.1,0.1,0.1,0.1,0.2l0.4,0.5c0,0.1,0.1,0.1,0.1,0.2c0.1,0.2,0.2,0.4,0.4,0.6l0,0
	c0.1,0.1,0.2,0.3,0.3,0.5l0.4,0.8c0,0,0,0,0,0c0,0.1,0.1,0.1,0.1,0.2c0.1,0.1,0.2,0.4,0.2,0.6c0.1,0.1,0.1,0.3,0.2,0.5l0.1,0.4
	c0.1,0.2,0.2,0.4,0.2,0.7c0,0.1,0.1,0.2,0.1,0.3c0,0.1,0,0.1,0.1,0.2l0.1,0.5c0,0.1,0.1,0.2,0.1,0.4l0.1,0.2v0.1c0,0,0,0.1,0,0.1
	c0,0.2,0.1,0.4,0.1,0.7c0,0.1,0,0.1,0,0.2c0,0.1,0,0.2,0.1,0.4l0.1,0.2v0.1c0,0.1,0.1,0.3,0.1,0.5c0,0.2,0,0.3,0,0.6l0.1,0.2v0.2
	l0.1,0.2v2.1c0,0.2,0,0.4-0.1,0.7c0,0.2,0,0.3-0.1,0.6c0,0.1,0,0.1,0,0.2c0,0.2,0,0.4-0.1,0.5l-0.1,0.4c0,0.1,0,0.2-0.1,0.3
	c0,0.1,0,0.1,0,0.2l-0.1,0.5c0,0.2,0,0.3,0,0.4l-0.1,0.3c0,0.1-0.1,0.2-0.1,0.4l-0.1,0.5c0,0.1,0,0.2-0.1,0.3c0,0.1-0.1,0.2-0.1,0.3
	l-0.1,0.2c0,0.1-0.1,0.2-0.1,0.4l-0.1,0.4c0,0.1-0.1,0.2-0.1,0.3l-0.2,0.4c0,0.1-0.1,0.1-0.1,0.2c-0.1,0.2-0.2,0.4-0.3,0.5l-0.3,0.5
	c-0.1,0.1-0.1,0.2-0.2,0.3c-0.1,0.1-0.2,0.3-0.3,0.5c0,0.1-0.1,0.1-0.1,0.2c-0.1,0.1-0.1,0.2-0.2,0.3l-0.1,0.2
	c-0.1,0.1-0.1,0.2-0.2,0.3c-0.1,0.1-0.1,0.2-0.2,0.3l-0.1,0.2c-0.1,0.2-0.2,0.4-0.5,0.6c-0.1,0.1-0.1,0.1-0.2,0.2
	c-0.1,0.1-0.1,0.2-0.3,0.3l-0.5,0.6l-0.1,0.2l-64.7,64.7c-1.2,1.2-3.1,1.2-4.2,0l-24.3-24.3c-1.2-1.2-1.2-3.1,0-4.2l29.5-29.5H345.6
	c-51.6,0-94.4,41.2-94.9,92.8c-0.5,52.1,41.7,94.6,93.7,94.6h151c1.6,0,3,1.3,3,3l0.4,34.3c0,1.7-1.3,3-3,3H344.5
	c-35.8,0-69.4-13.9-94.7-39.2c-25.3-25.3-39.2-58.9-39.2-94.7C210.6,401.7,224.5,368,249.8,342.7z"/>
</svg>
