<?xml version="1.0" encoding="utf-8"?>
<!-- Generator: Adobe Illustrator 21.0.0, SVG Export Plug-In . SVG Version: 6.00 Build 0)  -->
<svg version="1.1" id="图层_1" xmlns="http://www.w3.org/2000/svg" xmlns:xlink="http://www.w3.org/1999/xlink" x="0px" y="0px"
	 viewBox="0 0 800 800" style="enable-background:new 0 0 800 800;" xml:space="preserve">
<path d="M557,379.7H429.7c-6.8-1.6-14-3-21.6-4.1c-52.4-9.8-78.3-28.2-77-54.9c2.1-17.6,8.6-30.6,20-39.6
	c11.3-9,27.8-14.1,49.1-15.2c41.6,1.1,65,21.8,71.7,63.5l1.5,9.7l31.4-10.8c4.1-1.4,6.5-5.8,5.6-10.2c-10.8-60-48.4-91-111.7-92.1
	l-0.1,0l-0.2,0c-32.7,1.2-58.1,9.5-75.5,24.8c-17.9,15.7-27.8,38.9-29.4,68.7c-1,24.5,7.1,44.6,24,60.2h-75c-2.4,0-4.3,1.9-4.3,4.3
	V415c0,2.4,1.9,4.3,4.3,4.3h183.2c16,4.5,28.6,10.2,37.6,17.3c12.3,9.7,17.7,21.7,16.6,36.7c-3.3,40.3-27.2,60.8-73.2,62.8
	c-50.7,0-78.6-25.9-85.3-79.3l-1.4-10.7l-38.7,16.1l1.5,7.3C296,538.2,336.2,573,402.2,573c2,0,4.1,0,6.3-0.1l0.1,0
	c67.2-3.4,103.8-35.3,108.8-94.6l0-0.3c1.3-23.3-4.3-42.8-16.5-58.6h56c2.4,0,4.3-1.9,4.3-4.3V384
	C561.3,381.6,559.3,379.7,557,379.7z"/>
</svg>
