<?xml version="1.0" encoding="utf-8"?>
<!-- Generator: Adobe Illustrator 21.0.0, SVG Export Plug-In . SVG Version: 6.00 Build 0)  -->
<svg version="1.1" id="图层_1" xmlns="http://www.w3.org/2000/svg" xmlns:xlink="http://www.w3.org/1999/xlink" x="0px" y="0px"
	 viewBox="0 0 800 800" style="enable-background:new 0 0 800 800;" xml:space="preserve">
<path d="M530.7,225.5h-35c-1.1,0-2,0.9-2,2V380H305.3V227.5c0-1.1-0.9-2-2-2h-35c-1.1,0-2,0.9-2,2V382v35v154.5
	c0,1.1,0.9,2,2,2h35c1.1,0,2-0.9,2-2V419h188.4v152.5c0,1.1,0.9,2,2,2h35c1.1,0,2-0.9,2-2v-344C532.7,226.4,531.8,225.5,530.7,225.5
	z"/>
</svg>
