<?xml version="1.0" encoding="utf-8"?>
<!-- Generator: Adobe Illustrator 21.0.0, SVG Export Plug-In . SVG Version: 6.00 Build 0)  -->
<svg version="1.1" id="图层_1" xmlns="http://www.w3.org/2000/svg" xmlns:xlink="http://www.w3.org/1999/xlink" x="0px" y="0px"
	 viewBox="0 0 800 800" style="enable-background:new 0 0 800 800;" xml:space="preserve">
<g>
	<path d="M389.9,518.1h18.4c33.4,0,64.5-14.8,87.6-41.6c22.5-26,35-60.4,35-96.8V210.5c0-2.4-1.9-4.3-4.3-4.3h-31
		c-2.4,0-4.3,1.9-4.3,4.3v169.2c0,54.5-37.3,98.9-83,98.9h-18.4c-45.7,0-83-44.4-83-98.9V210.4c0-2.4-1.9-4.3-4.3-4.3h-31
		c-2.4,0-4.3,1.9-4.3,4.3v169.3c0,36.4,12.5,70.8,35,96.8C325.5,503.2,356.6,518.1,389.9,518.1z"/>
	<path d="M527.9,552.9H270.3c-2.4,0-4.3,1.9-4.3,4.3v31.1c0,2.4,1.9,4.3,4.3,4.3h257.6c2.4,0,4.3-1.9,4.3-4.3v-31.1
		C532.1,554.8,530.2,552.9,527.9,552.9z"/>
</g>
</svg>
