<?xml version="1.0" encoding="utf-8"?>
<!-- Generator: Adobe Illustrator 21.0.0, SVG Export Plug-In . SVG Version: 6.00 Build 0)  -->
<svg version="1.1" id="图层_1" xmlns="http://www.w3.org/2000/svg" xmlns:xlink="http://www.w3.org/1999/xlink" x="0px" y="0px"
	 viewBox="0 0 800 800" style="enable-background:new 0 0 800 800;" xml:space="preserve">
<g>
	<path d="M398.5,396c0.7,0,1.3-0.2,1.9-0.6l69.8-49.2c0.7-0.5,1.2-1.3,1.4-2.2c0.1-0.9,0-1.8-0.5-2.5l-18.7-26.7
		c-1-1.5-3.1-1.9-4.7-0.9l-69.8,49.2c-0.7,0.5-1.2,1.3-1.4,2.2c-0.1,0.9,0,1.8,0.5,2.5l18.7,26.7C396.4,395.5,397.4,396,398.5,396z"
		/>
	<path d="M364,376.9c-0.9,0.2-1.7,0.7-2.2,1.4l-48.3,69.8c-1,1.5-0.6,3.7,0.9,4.7l26.7,18.7c0.6,0.4,1.2,0.6,1.9,0.6
		c1.1,0,2.2-0.5,2.8-1.4l48.3-69.8l0,0c1-1.5,0.7-3.5-0.9-4.7l-26.7-18.7C365.8,376.9,364.9,376.8,364,376.9z"/>
	<path d="M425.1,435l-28.3-19.8l-22.5,32.2l4.9,3.4l-64.5,92.1l-58.5-41l64.5-92.1l4.9,3.4l22.6-32.1l-28.3-19.8
		c-2.4-1.7-5.3-2.3-8.1-1.8c-2.9,0.5-5.3,2.1-6.9,4.5l-97.2,138.8c-1.7,2.4-2.3,5.3-1.8,8.1c0.5,2.9,2.1,5.3,4.5,6.9l105.2,73.7
		c1.8,1.3,4,2,6.2,2c0.6,0,1.3-0.1,1.9-0.2c2.9-0.5,5.3-2.1,6.9-4.5L427.8,450c1.7-2.4,2.3-5.3,1.8-8.1
		C429.1,439,427.5,436.6,425.1,435z"/>
	<path d="M591.1,316.2L517.4,211c-3.4-4.8-10.2-6-15-2.7l-138.8,97.2c-4.8,3.4-6,10.2-2.7,15l19.9,28.3l32-22.7
		l-3.4-4.9l92.1-64.5l41,58.5l-92.1,64.5l-3.4-4.9l-32.1,22.6l19.9,28.3c2.1,3,5.5,4.6,8.9,4.6c2.1,0,4.2-0.6,6.1-1.9l138.8-97.2
		C593.3,327.8,594.5,321.1,591.1,316.2z"/>

		<rect x="221.8" y="331" transform="matrix(0.8949 -0.4462 0.4462 0.8949 -125.891 148.968)" width="63.1" height="21.6"/>

		<rect x="267.3" y="255.4" transform="matrix(0.9114 -0.4116 0.4116 0.9114 -90.9377 139.3702)" width="21.6" height="50.9"/>

		<rect x="313.7" y="252.5" transform="matrix(0.2992 -0.9542 0.9542 0.2992 -13.3443 508.4012)" width="51.5" height="21.6"/>
</g>
</svg>
